<?xml version="1.0" encoding="UTF-8" standalone="no"?><svg xmlns="http://www.w3.org/2000/svg" xmlns:xlink="http://www.w3.org/1999/xlink" contentScriptType="application/ecmascript" contentStyleType="text/css" height="769px" preserveAspectRatio="none" style="width:632px;height:769px;" version="1.1" viewBox="0 0 632 769" width="632px" zoomAndPan="magnify"><defs><filter height="300%" id="f1mrnwqw0zkf0y" width="300%" x="-1" y="-1"><feGaussianBlur result="blurOut" stdDeviation="2.0"/><feColorMatrix in="blurOut" result="blurOut2" type="matrix" values="0 0 0 0 0 0 0 0 0 0 0 0 0 0 0 0 0 0 .4 0"/><feOffset dx="4.0" dy="4.0" in="blurOut2" result="blurOut3"/><feBlend in="SourceGraphic" in2="blurOut3" mode="normal"/></filter></defs><g><text fill="#000000" font-family="sans-serif" font-size="18" lengthAdjust="spacingAndGlyphs" textLength="225" x="207.5" y="16.708">https://mauro-colella.com</text><!--class Redux--><rect fill="#FEFECE" filter="url(#f1mrnwqw0zkf0y)" height="66.7422" id="Redux" style="stroke: #A80036; stroke-width: 1.5;" width="92" x="310.5" y="122.9531"/><ellipse cx="325.5" cy="141.9219" fill="#FFFF00" rx="11" ry="11" style="stroke: #A80036; stroke-width: 1.0;"/><path d="M325.2969,137.5938 L325.2969,141.2188 L326.2969,141.2188 Q327.5,141.2188 327.9844,140.8125 Q328.4688,140.4063 328.4688,139.4063 Q328.4688,138.4063 327.9844,138 Q327.5,137.5938 326.2969,137.5938 L325.2969,137.5938 Z M322.8438,135.5313 L326.2031,135.5313 Q328.7656,135.5313 329.8906,136.4453 Q331.0156,137.3594 331.0156,139.4063 Q331.0156,141.4531 329.8906,142.3672 Q328.7656,143.2813 326.2031,143.2813 L325.2969,143.2813 L325.2969,147.9219 L322.8438,147.9219 L322.8438,135.5313 Z "/><text fill="#000000" font-family="sans-serif" font-size="12" font-style="italic" lengthAdjust="spacingAndGlyphs" textLength="64" x="337.5" y="139.0918">«Provider»</text><text fill="#000000" font-family="sans-serif" font-size="12" lengthAdjust="spacingAndGlyphs" textLength="38" x="350.5" y="153.0605">Redux</text><line style="stroke: #A80036; stroke-width: 1.5;" x1="311.5" x2="401.5" y1="160.8906" y2="160.8906"/><polygon fill="none" points="321.5,168.793,317.5,174.793,325.5,174.793" style="stroke: #1963A0; stroke-width: 1.0;"/><text fill="#000000" font-family="sans-serif" font-size="11" lengthAdjust="spacingAndGlyphs" textLength="30" x="330.5" y="175.1011">store</text><line style="stroke: #A80036; stroke-width: 1.5;" x1="311.5" x2="401.5" y1="181.6953" y2="181.6953"/><!--class BrowserRouter--><rect fill="#FEFECE" filter="url(#f1mrnwqw0zkf0y)" height="66.7422" id="BrowserRouter" style="stroke: #A80036; stroke-width: 1.5;" width="124" x="197.5" y="343.9531"/><ellipse cx="212.5" cy="362.9219" fill="#FFFF00" rx="11" ry="11" style="stroke: #A80036; stroke-width: 1.0;"/><path d="M212.2969,358.5938 L212.2969,362.2188 L213.2969,362.2188 Q214.5,362.2188 214.9844,361.8125 Q215.4688,361.4063 215.4688,360.4063 Q215.4688,359.4063 214.9844,359 Q214.5,358.5938 213.2969,358.5938 L212.2969,358.5938 Z M209.8438,356.5313 L213.2031,356.5313 Q215.7656,356.5313 216.8906,357.4453 Q218.0156,358.3594 218.0156,360.4063 Q218.0156,362.4531 216.8906,363.3672 Q215.7656,364.2813 213.2031,364.2813 L212.2969,364.2813 L212.2969,368.9219 L209.8438,368.9219 L209.8438,356.5313 Z "/><text fill="#000000" font-family="sans-serif" font-size="12" font-style="italic" lengthAdjust="spacingAndGlyphs" textLength="64" x="240.5" y="360.0918">«Provider»</text><text fill="#000000" font-family="sans-serif" font-size="12" lengthAdjust="spacingAndGlyphs" textLength="92" x="226.5" y="374.0605">BrowserRouter</text><line style="stroke: #A80036; stroke-width: 1.5;" x1="198.5" x2="320.5" y1="381.8906" y2="381.8906"/><polygon fill="none" points="208.5,389.793,204.5,395.793,212.5,395.793" style="stroke: #1963A0; stroke-width: 1.0;"/><text fill="#000000" font-family="sans-serif" font-size="11" lengthAdjust="spacingAndGlyphs" textLength="35" x="217.5" y="396.1011">router</text><line style="stroke: #A80036; stroke-width: 1.5;" x1="198.5" x2="320.5" y1="402.6953" y2="402.6953"/><!--class App--><rect fill="#FEFECE" filter="url(#f1mrnwqw0zkf0y)" height="66.7422" id="App" style="stroke: #A80036; stroke-width: 1.5;" width="102" x="11.5" y="494.4531"/><ellipse cx="26.5" cy="513.4219" fill="#FF0000" rx="11" ry="11" style="stroke: #A80036; stroke-width: 1.0;"/><path d="M29.4688,519.0625 Q28.8906,519.3594 28.25,519.5078 Q27.6094,519.6563 26.9063,519.6563 Q24.4063,519.6563 23.0859,518.0078 Q21.7656,516.3594 21.7656,513.2344 Q21.7656,510.1094 23.0859,508.4531 Q24.4063,506.7969 26.9063,506.7969 Q27.6094,506.7969 28.2578,506.9531 Q28.9063,507.1094 29.4688,507.4063 L29.4688,510.125 Q28.8438,509.5469 28.25,509.2734 Q27.6563,509 27.0313,509 Q25.6875,509 25,510.0703 Q24.3125,511.1406 24.3125,513.2344 Q24.3125,515.3281 25,516.3984 Q25.6875,517.4688 27.0313,517.4688 Q27.6563,517.4688 28.25,517.1953 Q28.8438,516.9219 29.4688,516.3438 L29.4688,519.0625 Z "/><text fill="#000000" font-family="sans-serif" font-size="12" font-style="italic" lengthAdjust="spacingAndGlyphs" textLength="74" x="38.5" y="510.5918">«container»</text><text fill="#000000" font-family="sans-serif" font-size="12" lengthAdjust="spacingAndGlyphs" textLength="24" x="63.5" y="524.5605">App</text><line style="stroke: #A80036; stroke-width: 1.5;" x1="12.5" x2="112.5" y1="532.3906" y2="532.3906"/><polygon fill="none" points="22.5,540.293,18.5,546.293,26.5,546.293" style="stroke: #1963A0; stroke-width: 1.0;"/><text fill="#000000" font-family="sans-serif" font-size="11" lengthAdjust="spacingAndGlyphs" textLength="30" x="31.5" y="546.6011">store</text><line style="stroke: #A80036; stroke-width: 1.5;" x1="12.5" x2="112.5" y1="553.1953" y2="553.1953"/><!--class Signup--><rect fill="#FEFECE" filter="url(#f1mrnwqw0zkf0y)" height="113.9609" id="Signup" style="stroke: #A80036; stroke-width: 1.5;" width="103" x="292" y="644.9531"/><ellipse cx="307.45" cy="663.9219" fill="#FF0000" rx="11" ry="11" style="stroke: #A80036; stroke-width: 1.0;"/><path d="M310.4188,669.5625 Q309.8406,669.8594 309.2,670.0078 Q308.5594,670.1563 307.8563,670.1563 Q305.3563,670.1563 304.0359,668.5078 Q302.7156,666.8594 302.7156,663.7344 Q302.7156,660.6094 304.0359,658.9531 Q305.3563,657.2969 307.8563,657.2969 Q308.5594,657.2969 309.2078,657.4531 Q309.8563,657.6094 310.4188,657.9063 L310.4188,660.625 Q309.7938,660.0469 309.2,659.7734 Q308.6063,659.5 307.9813,659.5 Q306.6375,659.5 305.95,660.5703 Q305.2625,661.6406 305.2625,663.7344 Q305.2625,665.8281 305.95,666.8984 Q306.6375,667.9688 307.9813,667.9688 Q308.6063,667.9688 309.2,667.6953 Q309.7938,667.4219 310.4188,666.8438 L310.4188,669.5625 Z "/><text fill="#000000" font-family="sans-serif" font-size="12" font-style="italic" lengthAdjust="spacingAndGlyphs" textLength="74" x="319.55" y="661.0918">«container»</text><text fill="#000000" font-family="sans-serif" font-size="12" lengthAdjust="spacingAndGlyphs" textLength="43" x="335.05" y="675.0605">Signup</text><line style="stroke: #A80036; stroke-width: 1.5;" x1="293" x2="394" y1="682.8906" y2="682.8906"/><polygon fill="none" points="303,690.793,299,696.793,307,696.793" style="stroke: #1963A0; stroke-width: 1.0;"/><text fill="#000000" font-family="sans-serif" font-size="11" lengthAdjust="spacingAndGlyphs" textLength="30" x="312" y="697.1011">store</text><polygon fill="none" points="303,719.4023,307,723.4023,303,727.4023,299,723.4023" style="stroke: #B38D22; stroke-width: 1.0;"/><text fill="#000000" font-family="sans-serif" font-size="11" lengthAdjust="spacingAndGlyphs" textLength="77" x="312" y="726.7104">history:object</text><polygon fill="none" points="303,732.207,307,736.207,303,740.207,299,736.207" style="stroke: #B38D22; stroke-width: 1.0;"/><text fill="#000000" font-family="sans-serif" font-size="11" lengthAdjust="spacingAndGlyphs" textLength="64" x="312" y="739.5151">user:object</text><polygon fill="#FFFF44" points="303,745.0117,307,749.0117,303,753.0117,299,749.0117" style="stroke: #B38D22; stroke-width: 1.0;"/><text fill="#000000" font-family="sans-serif" font-size="11" lengthAdjust="spacingAndGlyphs" textLength="61" x="312" y="752.3198">onSignup()</text><line style="stroke: #A80036; stroke-width: 1.0;" x1="293" x2="327" y1="710.0977" y2="710.0977"/><line style="stroke: #A80036; stroke-width: 1.0;" x1="293" x2="327" y1="712.0977" y2="712.0977"/><text fill="#000000" font-family="sans-serif" font-size="11" lengthAdjust="spacingAndGlyphs" textLength="33" x="327" y="713.4058">props</text><line style="stroke: #A80036; stroke-width: 1.0;" x1="360" x2="394" y1="710.0977" y2="710.0977"/><line style="stroke: #A80036; stroke-width: 1.0;" x1="360" x2="394" y1="712.0977" y2="712.0977"/><!--class Catalog--><rect fill="#FEFECE" filter="url(#f1mrnwqw0zkf0y)" height="254.8125" id="Catalog" style="stroke: #A80036; stroke-width: 1.5;" width="184" x="437.5" y="28.9531"/><ellipse cx="490.25" cy="47.9219" fill="#FF0000" rx="11" ry="11" style="stroke: #A80036; stroke-width: 1.0;"/><path d="M493.2188,53.5625 Q492.6406,53.8594 492,54.0078 Q491.3594,54.1563 490.6563,54.1563 Q488.1563,54.1563 486.8359,52.5078 Q485.5156,50.8594 485.5156,47.7344 Q485.5156,44.6094 486.8359,42.9531 Q488.1563,41.2969 490.6563,41.2969 Q491.3594,41.2969 492.0078,41.4531 Q492.6563,41.6094 493.2188,41.9063 L493.2188,44.625 Q492.5938,44.0469 492,43.7734 Q491.4063,43.5 490.7813,43.5 Q489.4375,43.5 488.75,44.5703 Q488.0625,45.6406 488.0625,47.7344 Q488.0625,49.8281 488.75,50.8984 Q489.4375,51.9688 490.7813,51.9688 Q491.4063,51.9688 492,51.6953 Q492.5938,51.4219 493.2188,50.8438 L493.2188,53.5625 Z "/><text fill="#000000" font-family="sans-serif" font-size="12" font-style="italic" lengthAdjust="spacingAndGlyphs" textLength="74" x="508.75" y="45.0918">«container»</text><text fill="#000000" font-family="sans-serif" font-size="12" lengthAdjust="spacingAndGlyphs" textLength="48" x="521.75" y="59.0605">Catalog</text><line style="stroke: #A80036; stroke-width: 1.5;" x1="438.5" x2="620.5" y1="66.8906" y2="66.8906"/><polygon fill="none" points="448.5,74.793,444.5,80.793,452.5,80.793" style="stroke: #1963A0; stroke-width: 1.0;"/><text fill="#000000" font-family="sans-serif" font-size="11" lengthAdjust="spacingAndGlyphs" textLength="30" x="457.5" y="81.1011">store</text><polygon fill="none" points="448.5,103.4023,452.5,107.4023,448.5,111.4023,444.5,107.4023" style="stroke: #B38D22; stroke-width: 1.0;"/><text fill="#000000" font-family="sans-serif" font-size="11" lengthAdjust="spacingAndGlyphs" textLength="64" x="457.5" y="110.7104">user:object</text><polygon fill="none" points="448.5,116.207,452.5,120.207,448.5,124.207,444.5,120.207" style="stroke: #B38D22; stroke-width: 1.0;"/><text fill="#000000" font-family="sans-serif" font-size="11" lengthAdjust="spacingAndGlyphs" textLength="70" x="457.5" y="123.5151">cartID:string</text><polygon fill="#FFFF44" points="448.5,129.0117,452.5,133.0117,448.5,137.0117,444.5,133.0117" style="stroke: #B38D22; stroke-width: 1.0;"/><text fill="#000000" font-family="sans-serif" font-size="11" lengthAdjust="spacingAndGlyphs" textLength="115" x="457.5" y="136.3198">departments:array()</text><polygon fill="none" points="448.5,141.8164,452.5,145.8164,448.5,149.8164,444.5,145.8164" style="stroke: #B38D22; stroke-width: 1.0;"/><text fill="#000000" font-family="sans-serif" font-size="11" lengthAdjust="spacingAndGlyphs" textLength="143" x="457.5" y="149.1245">departmentDetails:object</text><polygon fill="#FFFF44" points="448.5,154.6211,452.5,158.6211,448.5,162.6211,444.5,158.6211" style="stroke: #B38D22; stroke-width: 1.0;"/><text fill="#000000" font-family="sans-serif" font-size="11" lengthAdjust="spacingAndGlyphs" textLength="102" x="457.5" y="161.9292">categories:array()</text><polygon fill="none" points="448.5,167.4258,452.5,171.4258,448.5,175.4258,444.5,171.4258" style="stroke: #B38D22; stroke-width: 1.0;"/><text fill="#000000" font-family="sans-serif" font-size="11" lengthAdjust="spacingAndGlyphs" textLength="126" x="457.5" y="174.7339">categoryDetails:object</text><polygon fill="#FFFF44" points="448.5,180.2305,452.5,184.2305,448.5,188.2305,444.5,184.2305" style="stroke: #B38D22; stroke-width: 1.0;"/><text fill="#000000" font-family="sans-serif" font-size="11" lengthAdjust="spacingAndGlyphs" textLength="87" x="457.5" y="187.5386">onFetchCartID()</text><polygon fill="#FFFF44" points="448.5,193.0352,452.5,197.0352,448.5,201.0352,444.5,197.0352" style="stroke: #B38D22; stroke-width: 1.0;"/><text fill="#000000" font-family="sans-serif" font-size="11" lengthAdjust="spacingAndGlyphs" textLength="123" x="457.5" y="200.3433">onLoadDepartments()</text><polygon fill="#FFFF44" points="448.5,205.8398,452.5,209.8398,448.5,213.8398,444.5,209.8398" style="stroke: #B38D22; stroke-width: 1.0;"/><text fill="#000000" font-family="sans-serif" font-size="11" lengthAdjust="spacingAndGlyphs" textLength="155" x="457.5" y="213.1479">onLoadDepartmentDetails()</text><polygon fill="#FFFF44" points="448.5,218.6445,452.5,222.6445,448.5,226.6445,444.5,222.6445" style="stroke: #B38D22; stroke-width: 1.0;"/><text fill="#000000" font-family="sans-serif" font-size="11" lengthAdjust="spacingAndGlyphs" textLength="158" x="457.5" y="225.9526">onClearDepartmentDetails()</text><polygon fill="#FFFF44" points="448.5,231.4492,452.5,235.4492,448.5,239.4492,444.5,235.4492" style="stroke: #B38D22; stroke-width: 1.0;"/><text fill="#000000" font-family="sans-serif" font-size="11" lengthAdjust="spacingAndGlyphs" textLength="111" x="457.5" y="238.7573">onLoadCategories()</text><polygon fill="#FFFF44" points="448.5,244.2539,452.5,248.2539,448.5,252.2539,444.5,248.2539" style="stroke: #B38D22; stroke-width: 1.0;"/><text fill="#000000" font-family="sans-serif" font-size="11" lengthAdjust="spacingAndGlyphs" textLength="114" x="457.5" y="251.562">onClearCategories()</text><polygon fill="#FFFF44" points="448.5,257.0586,452.5,261.0586,448.5,265.0586,444.5,261.0586" style="stroke: #B38D22; stroke-width: 1.0;"/><text fill="#000000" font-family="sans-serif" font-size="11" lengthAdjust="spacingAndGlyphs" textLength="139" x="457.5" y="264.3667">onLoadCategoryDetails()</text><polygon fill="#FFFF44" points="448.5,269.8633,452.5,273.8633,448.5,277.8633,444.5,273.8633" style="stroke: #B38D22; stroke-width: 1.0;"/><text fill="#000000" font-family="sans-serif" font-size="11" lengthAdjust="spacingAndGlyphs" textLength="142" x="457.5" y="277.1714">onClearCategoryDetails()</text><line style="stroke: #A80036; stroke-width: 1.0;" x1="438.5" x2="513" y1="94.0977" y2="94.0977"/><line style="stroke: #A80036; stroke-width: 1.0;" x1="438.5" x2="513" y1="96.0977" y2="96.0977"/><text fill="#000000" font-family="sans-serif" font-size="11" lengthAdjust="spacingAndGlyphs" textLength="33" x="513" y="97.4058">props</text><line style="stroke: #A80036; stroke-width: 1.0;" x1="546" x2="620.5" y1="94.0977" y2="94.0977"/><line style="stroke: #A80036; stroke-width: 1.0;" x1="546" x2="620.5" y1="96.0977" y2="96.0977"/><!--class Footer--><rect fill="#FEFECE" filter="url(#f1mrnwqw0zkf0y)" height="53.9375" id="Footer" style="stroke: #A80036; stroke-width: 1.5;" width="113" x="6" y="674.9531"/><ellipse cx="21" cy="693.9219" fill="#0000FF" rx="11" ry="11" style="stroke: #A80036; stroke-width: 1.0;"/><path d="M23.9688,699.5625 Q23.3906,699.8594 22.75,700.0078 Q22.1094,700.1563 21.4063,700.1563 Q18.9063,700.1563 17.5859,698.5078 Q16.2656,696.8594 16.2656,693.7344 Q16.2656,690.6094 17.5859,688.9531 Q18.9063,687.2969 21.4063,687.2969 Q22.1094,687.2969 22.7578,687.4531 Q23.4063,687.6094 23.9688,687.9063 L23.9688,690.625 Q23.3438,690.0469 22.75,689.7734 Q22.1563,689.5 21.5313,689.5 Q20.1875,689.5 19.5,690.5703 Q18.8125,691.6406 18.8125,693.7344 Q18.8125,695.8281 19.5,696.8984 Q20.1875,697.9688 21.5313,697.9688 Q22.1563,697.9688 22.75,697.6953 Q23.3438,697.4219 23.9688,696.8438 L23.9688,699.5625 Z "/><text fill="#000000" font-family="sans-serif" font-size="12" font-style="italic" lengthAdjust="spacingAndGlyphs" textLength="85" x="33" y="691.0918">«component»</text><text fill="#000000" font-family="sans-serif" font-size="12" lengthAdjust="spacingAndGlyphs" textLength="41" x="55" y="705.0605">Footer</text><line style="stroke: #A80036; stroke-width: 1.5;" x1="7" x2="118" y1="712.8906" y2="712.8906"/><line style="stroke: #A80036; stroke-width: 1.5;" x1="7" x2="118" y1="720.8906" y2="720.8906"/><!--class SearchResults--><rect fill="#FEFECE" filter="url(#f1mrnwqw0zkf0y)" height="113.9609" id="SearchResults" style="stroke: #A80036; stroke-width: 1.5;" width="141" x="149" y="470.9531"/><ellipse cx="172.55" cy="489.9219" fill="#0000FF" rx="11" ry="11" style="stroke: #A80036; stroke-width: 1.0;"/><path d="M175.5188,495.5625 Q174.9406,495.8594 174.3,496.0078 Q173.6594,496.1563 172.9563,496.1563 Q170.4563,496.1563 169.1359,494.5078 Q167.8156,492.8594 167.8156,489.7344 Q167.8156,486.6094 169.1359,484.9531 Q170.4563,483.2969 172.9563,483.2969 Q173.6594,483.2969 174.3078,483.4531 Q174.9563,483.6094 175.5188,483.9063 L175.5188,486.625 Q174.8938,486.0469 174.3,485.7734 Q173.7063,485.5 173.0813,485.5 Q171.7375,485.5 171.05,486.5703 Q170.3625,487.6406 170.3625,489.7344 Q170.3625,491.8281 171.05,492.8984 Q171.7375,493.9688 173.0813,493.9688 Q173.7063,493.9688 174.3,493.6953 Q174.8938,493.4219 175.5188,492.8438 L175.5188,495.5625 Z "/><text fill="#000000" font-family="sans-serif" font-size="12" font-style="italic" lengthAdjust="spacingAndGlyphs" textLength="85" x="190.95" y="487.0918">«component»</text><text fill="#000000" font-family="sans-serif" font-size="12" lengthAdjust="spacingAndGlyphs" textLength="90" x="188.45" y="501.0605">SearchResults</text><line style="stroke: #A80036; stroke-width: 1.5;" x1="150" x2="289" y1="508.8906" y2="508.8906"/><polygon fill="none" points="160,532.5977,164,536.5977,160,540.5977,156,536.5977" style="stroke: #B38D22; stroke-width: 1.0;"/><text fill="#000000" font-family="sans-serif" font-size="11" lengthAdjust="spacingAndGlyphs" textLength="104" x="169" y="539.9058">department:object</text><polygon fill="#FFFF44" points="160,545.4023,164,549.4023,160,553.4023,156,549.4023" style="stroke: #B38D22; stroke-width: 1.0;"/><text fill="#000000" font-family="sans-serif" font-size="11" lengthAdjust="spacingAndGlyphs" textLength="115" x="169" y="552.7104">departments:array()</text><polygon fill="none" points="160,558.207,164,562.207,160,566.207,156,562.207" style="stroke: #B38D22; stroke-width: 1.0;"/><text fill="#000000" font-family="sans-serif" font-size="11" lengthAdjust="spacingAndGlyphs" textLength="87" x="169" y="565.5151">category:object</text><polygon fill="#FFFF44" points="160,571.0117,164,575.0117,160,579.0117,156,575.0117" style="stroke: #B38D22; stroke-width: 1.0;"/><text fill="#000000" font-family="sans-serif" font-size="11" lengthAdjust="spacingAndGlyphs" textLength="102" x="169" y="578.3198">categories:array()</text><line style="stroke: #A80036; stroke-width: 1.0;" x1="150" x2="203" y1="523.293" y2="523.293"/><line style="stroke: #A80036; stroke-width: 1.0;" x1="150" x2="203" y1="525.293" y2="525.293"/><text fill="#000000" font-family="sans-serif" font-size="11" lengthAdjust="spacingAndGlyphs" textLength="33" x="203" y="526.6011">props</text><line style="stroke: #A80036; stroke-width: 1.0;" x1="236" x2="289" y1="523.293" y2="523.293"/><line style="stroke: #A80036; stroke-width: 1.0;" x1="236" x2="289" y1="525.293" y2="525.293"/><!--link Redux to BrowserRouter--><path d="M336.619,202.3401 C317.99,244.3971 290.593,306.2541 273.963,343.8011 " fill="none" id="Redux-BrowserRouter" style="stroke: #A80036; stroke-width: 1.0;"/><polygon fill="#A80036" points="341.978,190.2401,335.8911,194.1065,337.1189,201.2123,343.2059,197.3459,341.978,190.2401" style="stroke: #A80036; stroke-width: 1.0;"/><!--link BrowserRouter to App--><path d="M209.055,413.9211 C185.296,430.8761 156.703,451.6431 131.5,470.9531 C123.186,477.3231 114.428,484.2531 106.048,490.9981 " fill="none" id="BrowserRouter-App" style="stroke: #A80036; stroke-width: 1.0; stroke-dasharray: 7.0,7.0;"/><polygon fill="#A80036" points="101.9678,494.2911,111.4832,491.7501,105.8582,491.1503,106.458,485.5254,101.9678,494.2911" style="stroke: #A80036; stroke-width: 1.0;"/><polygon fill="#A80036" points="213.128,411.0171,203.4777,412.985,209.0568,413.9198,208.122,419.4989,213.128,411.0171" style="stroke: #A80036; stroke-width: 1.0;"/><!--link Redux to Signup--><path d="M355.644,195.3721 C353.954,269.9771 350.043,441.0861 346.5,584.9531 C346.064,602.6571 345.574,621.8801 345.118,639.4921 " fill="none" id="Redux-Signup" style="stroke: #A80036; stroke-width: 1.0; stroke-dasharray: 7.0,7.0;"/><polygon fill="#A80036" points="344.978,644.9021,349.2081,636.008,345.1066,639.9038,341.2107,635.8022,344.978,644.9021" style="stroke: #A80036; stroke-width: 1.0;"/><polygon fill="#A80036" points="355.762,190.1691,351.5574,199.0754,355.6477,195.1678,359.5553,199.2582,355.762,190.1691" style="stroke: #A80036; stroke-width: 1.0;"/><!--link App to Signup--><path d="M110.736,569.9111 C117.563,575.1691 124.607,580.3261 131.5,584.9531 C183.925,620.1471 247.98,654.0521 291.872,676.0199 " fill="none" id="App-Signup" style="stroke: #A80036; stroke-width: 1.0;"/><polygon fill="#A80036" points="100.2398,561.6241,102.4706,568.4815,109.6585,569.0597,107.4277,562.2023,100.2398,561.6241" style="stroke: #A80036; stroke-width: 1.0;"/><!--link App to Footer--><path d="M62.5,574.7571 C62.5,606.7331 62.5,648.2751 62.5,674.784 " fill="none" id="App-Footer" style="stroke: #A80036; stroke-width: 1.0;"/><polygon fill="#FFFFFF" points="62.5,561.7101,58.5,567.7101,62.5,573.7101,66.5,567.7101,62.5,561.7101" style="stroke: #A80036; stroke-width: 1.0;"/><!--link BrowserRouter to Signup--><path d="M282.327,415.6741 C291.456,432.0891 301.263,451.9391 307.5,470.9531 C326.396,528.5581 335.508,597.6211 339.814,644.9381 " fill="none" id="BrowserRouter-Signup" style="stroke: #A80036; stroke-width: 1.0; stroke-dasharray: 7.0,7.0;"/><polygon fill="#A80036" points="279.774,411.1391,280.7034,420.944,282.2268,415.4962,287.6747,417.0196,279.774,411.1391" style="stroke: #A80036; stroke-width: 1.0;"/><!--link BrowserRouter to SearchResults--><path d="M250.722,411.0421 C246.413,427.0401 241.076,446.8541 236.04,465.5471 " fill="none" id="BrowserRouter-SearchResults" style="stroke: #A80036; stroke-width: 1.0; stroke-dasharray: 7.0,7.0;"/><polygon fill="#A80036" points="234.629,470.7861,240.8318,463.1359,235.9292,465.9581,233.107,461.0556,234.629,470.7861" style="stroke: #A80036; stroke-width: 1.0;"/><!--
@startuml
title https://mauro-colella.com

class Redux << (P,yellow) Provider>> {
    ~store
}

class BrowserRouter << (P,yellow) Provider>> {
    ~router
}

class App << (C,red) container>> {
    ~store
}

class Signup << (C,red) container>> {
    ~store
    ==props==
    # history:object
    # user:object
    # onSignup()
}

class Catalog << (C,red) container>> {
    ~store
    ==props==
    # user:object
    # cartID:string
    # departments:array()
    # departmentDetails:object
    # categories:array()
    # categoryDetails:object
    # onFetchCartID()
    # onLoadDepartments()
    # onLoadDepartmentDetails()
    # onClearDepartmentDetails()
    # onLoadCategories()
    # onClearCategories()
    # onLoadCategoryDetails()
    # onClearCategoryDetails()
}

class Footer << (C,blue) component >> {

}

class SearchResults << (C,blue) component>> {
    ==props==
    # department:object
    # departments:array()
    # category:object
    # categories:array()
}

Redux *- - BrowserRouter
BrowserRouter <..> App

Redux <..> Signup

App *- - Signup
App o- - Footer

BrowserRouter <.. Signup
BrowserRouter ..> SearchResults

@enduml

PlantUML version 1.2018.14(Fri Dec 21 16:33:16 UTC 2018)
(GPL source distribution)
Java Runtime: OpenJDK Runtime Environment
JVM: OpenJDK 64-Bit Server VM
Java Version: 1.8.0_181-8u181-b13-2~deb9u1-b13
Operating System: Linux
OS Version: 4.15.0-1043-aws
Default Encoding: UTF-8
Language: en
Country: null
--></g></svg>